<svg id="Layer_1" data-name="Layer 1" xmlns="http://www.w3.org/2000/svg" viewBox="0 0 750 430.59"><defs><style>.cls-1{fill:#f2fae8;}.cls-2{fill:#5f5f5f;}.cls-3{fill:#74c3c1;}.cls-4{fill:#f78a48;}.cls-5{fill:#e9f7f6;}</style></defs><path class="cls-1" d="M14.08,239.7c1.93-2.33,2-5.49,3.9-7.94,4.79-6.36,10.62-10.13,18.93-10.1q65.48.17,131,0c12.81,0,22.81-6.84,25.53-19.89,1.41-6.75-3.44-19.89-11.4-23.56a34,34,0,0,0-14.38-3.49q-40.49.06-81,0a22.45,22.45,0,0,1-22.53-19.87,23.14,23.14,0,0,1,16.47-24.78,36.6,36.6,0,0,1,9.81-1.38c40.82.08,81.64,0,123.4,0-6.13-3.67-11.5-6.81-14.4-13.06C192.26,100.36,203,82.8,220,82.8c23.16,0,46.31.14,69.47.22-1.31,1-2.58,2.07-3.94,3-57,40-77.85,117.07-48.92,180.29,8.21,17.93,19.75,33.38,33.53,47.3-33.94,0-67.89-.14-101.83.13-11.41.09-21.7-7.95-24-18-2.53-11.05,3.16-21.61,14.21-26.79a2.17,2.17,0,0,0,1.43-1.31H131.16q-44.93,0-89.86,0c-12.23,0-21.58-4.28-26-16.48a6.32,6.32,0,0,0-1.2-1.53Z"/><path class="cls-1" d="M730.92,293.68c-2.6,3.38-3.74,7.63-7.06,10.67-7,6.41-16.05,8.13-24.94,4.19-7.65-3.38-13.28-12.64-13-21.36s6.54-17,14.89-19.95c11.74-4.1,23.32,1.07,28.26,12.56a21,21,0,0,0,1.84,2.89Z"/><path class="cls-1" d="M496,128.76c41.32,0,82.64.17,124-.1,12.9-.09,23.72,9,25.53,20,1.21,7.32-2.34,17.06-9.05,21.84-1.76,1.25-3.64,2.32-5.66,3.6,1.08,1.19,2.44.66,3.56.67,19.16,0,38.32-.11,57.48.09,7.58.08,14.75,1.64,20.38,7.6,5.84,6.19,8.08,13.12,5.84,21.42-2.49,9.29-8.75,14.58-17.84,16.83-4.39,1.08-8.87,1.09-13.36,1.07-18.33-.06-36.65,0-55,0a22.61,22.61,0,0,0-22.77,20.76c-1.09,10.78,7.17,21.66,17.53,24.2,8.06,2,16.24.89,24.36.92a26.18,26.18,0,0,1,15.4,4.73c10.35,7.16,12.27,22.92,4,32.45-5.38,6.22-11.85,9-20.11,9q-88.71-.23-177.43-.12c1.32-2.9,6.71-4.4,3.11-9-.12-2.95,3.56-2.86,4.16-5.24,2.33,1.78,4.16,1.29,5.92-1Q522.17,252,517.46,193.48C515.57,170.19,507.84,148.78,496,128.76Z"/><path class="cls-2" d="M496,128.76c11.84,20,19.57,41.43,21.46,64.72Q522.2,252,486.05,298.4c-1.76,2.27-3.59,2.76-5.92,1-1-3.34,1.54-5.24,3.18-7.42,20.95-27.87,30.49-59.34,28.4-94C508,136.92,465.93,86,406.43,69.86,329.5,49,250.54,97.15,233,175.71c-18.61,83.48,42.34,165.16,127.66,171.23a141.25,141.25,0,0,0,75.79-15.42c.45-.22.87-.5,1.32-.72,2-1,4.18-2.29,5.64.4,1.67,3.07-1.11,4.06-3.1,5.12a121.34,121.34,0,0,1-19.13,8.46q-82,26.85-148-28.68c-1-.85-2.06-1.65-3.1-2.47-13.78-13.92-25.32-29.37-33.53-47.3C207.65,203.11,228.51,126,285.5,86c1.36-1,2.63-2,3.94-3,13.59-8.15,27.65-15.38,43.17-19,57.14-13.28,106.22,1,146.93,43.46C485.78,114,490.81,121.44,496,128.76Z"/><path class="cls-3" d="M348.88,269.54a16.89,16.89,0,0,1-9.91-3.83c-12.1-10.17-24.14-20.4-36-30.83a13,13,0,0,1-4.08-14.48c2-6.26,6.56-9.52,12.8-10.35,4.14-.55,7.78,1.15,11,3.86,7.85,6.68,15.85,13.2,23.6,20,2.4,2.12,3.62,1.73,5.52-.55q30.25-36.18,60.66-72.22c4-4.72,8.58-8.07,15-7.08,11.51,1.75,16.4,14.62,8.88,23.64-17.57,21.08-35.33,42-53,63-6.12,7.25-12.19,14.54-18.45,21.66A19.87,19.87,0,0,1,348.88,269.54Zm1.07-7.78c4.41.08,7.25-2,9.73-4.93q26.25-31.06,52.56-62.09,9.18-10.86,18.19-21.87c2.54-3.1,2.73-6.56-.34-9.36s-6.38-2.5-9.49.12a21.38,21.38,0,0,0-2.41,2.53q-32.83,38.9-65.6,77.86c-1.93,2.32-2.92,2.81-5.38.67-9.43-8.17-19-16.14-28.63-24.11-4.37-3.62-8.29-3.76-11-.66s-2,7.38,2.37,11.14c10.86,9.32,21.79,18.55,32.66,27.86C344.86,260.85,347.32,262,350,261.76Z"/><path class="cls-1" d="M329.69,85.05a6.31,6.31,0,0,1-3.71,3.6c-18.82,6.89-34.17,18.72-47.61,33.29-.33.37-.7.71-1.05,1.07-1.36,1.41-2.74,2.42-4.71.85s-1.12-3.1.12-4.63a107.46,107.46,0,0,1,16.58-16.38,133.22,133.22,0,0,1,31.82-19.13A28.73,28.73,0,0,1,325.8,82C327.63,81.63,329.76,83.35,329.69,85.05Z"/><path class="cls-2" d="M476,304.62c3.6,4.6-1.79,6.1-3.11,9-5.67,4.85-11.13,10-17.44,14.05-1.95,1.27-4.06,3.17-6,.32-1.67-2.5.48-3.94,2.29-5.16a108.63,108.63,0,0,0,19-16.12C472.19,305.13,473.76,304.17,476,304.62Z"/><path class="cls-2" d="M539.9,40.4c0-2.82,0-5.65,0-8.47a3.36,3.36,0,0,1,3.34-3.64c2.31-.1,3.74,1.32,3.76,3.71,0,6,0,12,0,17.93a3.28,3.28,0,0,1-3.54,3.41,3.32,3.32,0,0,1-3.49-3.48c-.07-3.15,0-6.31,0-9.46Z"/><path class="cls-3" d="M522.67,57.91c2.65,0,5.3-.08,8,0,2.33.1,4.26.89,4.37,3.69s-1.68,3.93-4,4c-5.63.14-11.26.13-16.88,0-2.36-.06-4.19-1.12-4.13-3.92s2-3.66,4.3-3.77C517,57.82,519.86,57.92,522.67,57.91Z"/><path class="cls-3" d="M564.67,65.82c-2.81,0-5.63.09-8.43,0-2.59-.11-4.54-1.16-4.47-4.16.07-2.73,1.93-3.78,4.28-3.83,5.62-.12,11.25-.13,16.87,0,2.35.06,4.19,1.16,4.22,3.89,0,3-2,4-4.53,4.1S567.32,65.82,564.67,65.82Z"/><path class="cls-3" d="M547,82.61c0,3,.05,6,0,9,0,2.33-1.36,4-3.64,3.9s-3.5-1.71-3.51-4c0-5.8,0-11.61,0-17.41,0-2.33,1.36-4,3.64-3.9s3.49,1.71,3.51,4C547.07,77,547.05,79.79,547,82.61Z"/><path class="cls-4" d="M268.91,133.59c-.24.54-.54,1.32-.93,2q-4.39,8.1-8.82,16.18c-1,1.73-2.15,3.18-4.32,2.22s-2.16-2.74-1.29-4.63a124,124,0,0,1,9.34-17c1-1.5,2.22-2.54,4.14-1.77A3.13,3.13,0,0,1,268.91,133.59Z"/><path class="cls-4" d="M226.59,349.92c-.13,2.17-.15,4.33-.41,6.47a3.7,3.7,0,0,1-7.3-.05,58.56,58.56,0,0,1,0-13.43,3.7,3.7,0,0,1,7.3,0C226.48,345.26,226.46,347.6,226.59,349.92Z"/><path class="cls-4" d="M226.44,385.7c-.13,2.14-.19,4.28-.4,6.41a3.53,3.53,0,0,1-7-.12c-.17-4.11-.15-8.24-.08-12.35a3.37,3.37,0,0,1,3.4-3.57c2.31-.09,3.66,1.37,3.79,3.69.1,2,0,3.95,0,5.93Z"/><path class="cls-4" d="M240.87,363.74c1.82,0,3.65-.14,5.45,0,2.15.22,3.79,1.28,3.9,3.7a3.55,3.55,0,0,1-3.59,4,106.52,106.52,0,0,1-12.38,0,3.5,3.5,0,0,1-3.42-3.61c-.07-2.45,1.46-3.71,3.6-4a51.19,51.19,0,0,1,6.44-.06Z"/><path class="cls-4" d="M204.67,371.28a49.83,49.83,0,0,1-6.47-.06,3.36,3.36,0,0,1-3.13-3.82,3.23,3.23,0,0,1,3.11-3.33,120.44,120.44,0,0,1,12.46-.05,3.34,3.34,0,0,1,3.37,3.61,3.42,3.42,0,0,1-3.36,3.64,49.67,49.67,0,0,1-6,.05Z"/><path class="cls-5" d="M350,261.76c-2.63.23-5.09-.91-7.35-2.84-10.87-9.31-21.8-18.54-32.66-27.86-4.39-3.76-5.21-7.91-2.37-11.14s6.64-3,11,.66c9.6,8,19.2,15.94,28.63,24.11,2.46,2.14,3.45,1.65,5.38-.67q32.67-39,65.6-77.86a21.38,21.38,0,0,1,2.41-2.53c3.11-2.62,6.5-2.85,9.49-.12s2.88,6.26.34,9.36q-9,11-18.19,21.87Q386,225.8,359.68,256.83C357.2,259.76,354.36,261.84,350,261.76Z"/></svg>