<svg id="Layer_1" data-name="Layer 1" xmlns="http://www.w3.org/2000/svg" xmlns:xlink="http://www.w3.org/1999/xlink" viewBox="0 0 1000 1000"><defs><style>.cls-1{fill:url(#linear-gradient);}.cls-2{fill:url(#linear-gradient-2);}.cls-3{fill:url(#linear-gradient-3);}.cls-4{fill:url(#linear-gradient-4);}.cls-5{fill:url(#linear-gradient-5);}.cls-6{fill:url(#linear-gradient-6);}.cls-7{fill:url(#linear-gradient-7);}.cls-8{fill:url(#linear-gradient-8);}.cls-9{fill:#878787;}.cls-10{fill:url(#linear-gradient-9);}.cls-11{fill:url(#linear-gradient-10);}.cls-12{fill:url(#linear-gradient-11);}.cls-13{fill:url(#linear-gradient-12);}</style><linearGradient id="linear-gradient" x1="29.48" y1="529.27" x2="945.32" y2="520.63" gradientUnits="userSpaceOnUse"><stop offset="0" stop-color="#02716e"/><stop offset="1" stop-color="#459658"/></linearGradient><linearGradient id="linear-gradient-2" x1="29.5" y1="531.35" x2="945.34" y2="522.71" xlink:href="#linear-gradient"/><linearGradient id="linear-gradient-3" x1="29.51" y1="532.51" x2="945.35" y2="523.87" xlink:href="#linear-gradient"/><linearGradient id="linear-gradient-4" x1="29.06" y1="485.34" x2="944.9" y2="476.7" xlink:href="#linear-gradient"/><linearGradient id="linear-gradient-5" x1="29.81" y1="564.45" x2="945.65" y2="555.81" xlink:href="#linear-gradient"/><linearGradient id="linear-gradient-6" x1="28.85" y1="462.81" x2="944.69" y2="454.17" xlink:href="#linear-gradient"/><linearGradient id="linear-gradient-7" x1="28.88" y1="466.41" x2="944.72" y2="457.77" xlink:href="#linear-gradient"/><linearGradient id="linear-gradient-8" x1="561.52" y1="445.26" x2="590.49" y2="445.26" gradientUnits="userSpaceOnUse"><stop offset="0" stop-color="#706f6f"/><stop offset="1" stop-color="#575756"/></linearGradient><linearGradient id="linear-gradient-9" x1="589.11" y1="245.68" x2="590.19" y2="329.92" gradientUnits="userSpaceOnUse"><stop offset="0.38" stop-color="#063"/><stop offset="0.76" stop-color="#683c11"/></linearGradient><linearGradient id="linear-gradient-10" x1="576.68" y1="358.21" x2="576.68" y2="194.87" xlink:href="#linear-gradient-8"/><linearGradient id="linear-gradient-11" x1="552.47" y1="272.16" x2="553.19" y2="327.85" gradientUnits="userSpaceOnUse"><stop offset="0.33" stop-color="#063"/><stop offset="0.76" stop-color="#683c11"/></linearGradient><linearGradient id="linear-gradient-12" x1="568.32" y1="273.01" x2="568.98" y2="324.58" gradientUnits="userSpaceOnUse"><stop offset="0.3" stop-color="#063"/><stop offset="0.76" stop-color="#683c11"/></linearGradient></defs><path class="cls-1" d="M128.16,542.09A38.14,38.14,0,0,0,122,529.7a33.61,33.61,0,0,0-8.75-7.87,49.5,49.5,0,0,0-10.78-5q-5.83-1.89-11.66-3.65L85,511.49a107.24,107.24,0,0,1-14.72-5.11,15.41,15.41,0,0,1-8.6-9.47q-2-5.54,1.75-11.66a20,20,0,0,1,7.43-7.14,21.46,21.46,0,0,1,8.31-2.48,26.91,26.91,0,0,1,9.18,1,16.69,16.69,0,0,1,8,5.4,15.79,15.79,0,0,1,2.48,4.37,53,53,0,0,1,1.89,6.12,9.94,9.94,0,0,1,.44,4.08c-.1,1.75-.15,3.69-.15,5.83,0,1.17.34,1.89,1,2.19s1.5.63,2.48,1q3.21.87,4.81-.44a17.86,17.86,0,0,0,3.64-5.1c.19-.39,1-1.94,2.48-4.67s3-5.73,4.66-9,3.21-6.31,4.67-9,2.18-4.27,2.18-4.66a36.19,36.19,0,0,1,1-3.5c.29-.77-.14-1.84-1.31-3.21a5.4,5.4,0,0,0-3.06-2,8.28,8.28,0,0,0-3.06,0,7.49,7.49,0,0,0-2.48,1.61l-1.6,1.6q-2.34,3.49-5.68,3.35a18.21,18.21,0,0,1-5.69-1l-5.83-2.33a54.37,54.37,0,0,0-22.88-2.91,36.8,36.8,0,0,0-22.3,9.32q-8.44,7.29-11.51,16.18A34.46,34.46,0,0,0,41,507.11q1.45,7.88,4.52,12.54a25.56,25.56,0,0,0,7.57,7.58,48.7,48.7,0,0,0,10.35,4.95q5.83,2,12.83,4.66l5,1.75q5.83,2.05,10.2,3.65a41.18,41.18,0,0,1,7.44,3.49,13.93,13.93,0,0,1,4.81,5,15.47,15.47,0,0,1,1.74,7.72,19.7,19.7,0,0,1-2.91,11.08,20.8,20.8,0,0,1-9.33,8.45,24.33,24.33,0,0,1-17.05,1.9,30.25,30.25,0,0,1-15.3-9.77,26.25,26.25,0,0,0,3.06-6.26c.29-1.27.63-2.58,1-3.94a10.6,10.6,0,0,0-.44-6.85,18.4,18.4,0,0,0-3.64-5.1,15,15,0,0,0-7-3.5,19.35,19.35,0,0,0-8.16,0,16.53,16.53,0,0,0-7.43,3.79,16.83,16.83,0,0,0-4.81,6.71,18.78,18.78,0,0,0-1.17,10.2A30,30,0,0,0,36.05,575a25.21,25.21,0,0,0,8,8.31,60,60,0,0,0,10.49,5.53,70.47,70.47,0,0,0,10.35,3.36,37.42,37.42,0,0,0,8.16,1.16,84.21,84.21,0,0,0,12-.29,55.58,55.58,0,0,0,25.07-8.74,42.21,42.21,0,0,0,10.49-9.91,39.93,39.93,0,0,0,7.87-16A30.9,30.9,0,0,0,128.16,542.09Z"/><path class="cls-2" d="M250,562.79q-2.06,0-9.62,4.08-4.66,2.63-7.87,4.22t-4.67,2.19q-9.61,3.21-16.61,3.21A27.93,27.93,0,0,1,192,569.2q-9.33-8.46-8.45-17.2.87-8.16,10.2-13.41,4.37-2.62,17.49-7l11.37-3.79q15.43-5.25,20.4-8.45,9.62-6.42,9.62-18.37a32.84,32.84,0,0,0-7.87-21.86q-12.83-14.86-37.31-14.86h-4.08a29.46,29.46,0,0,0-4.08.29q-13.41,1.17-26.53,10.78-14.87,11.09-22.44,31.77-6.42,16.62-5,31.77,3.51,37.32,35.86,51.6a56.17,56.17,0,0,0,23,4.66q19.53,0,37.31-11.95,10.5-7.29,12-15.16C254.08,564.93,252.91,563.18,250,562.79Zm-73.75-28.28a72.61,72.61,0,0,1-1.75-16.9q0-20.12,7.73-29.59t20.84-8.89q10.49.3,17.78,10.79a16.76,16.76,0,0,1,3.5,9.62,11.63,11.63,0,0,1-1.17,5.24q-2.93,6.71-12.83,11.66c-2.72,1-5.39,2-8,3.21s-5.3,2.23-8,3.2l-4.95,2Q184.12,527.23,176.25,534.51Z"/><path class="cls-3" d="M372.7,562.79q-2,0-9.61,4.08-4.68,2.63-7.87,4.22t-4.67,2.19q-9.62,3.21-16.61,3.21a27.93,27.93,0,0,1-19.24-7.29q-9.33-8.46-8.45-17.2.87-8.16,10.2-13.41,4.37-2.62,17.49-7l11.37-3.79q15.44-5.25,20.4-8.45,9.62-6.42,9.62-18.37a32.89,32.89,0,0,0-7.87-21.86q-12.84-14.86-37.31-14.86h-4.08a29.35,29.35,0,0,0-4.08.29q-13.41,1.17-26.53,10.78Q280.6,486.43,273,507.11q-6.42,16.62-5,31.77,3.51,37.32,35.86,51.6a56.14,56.14,0,0,0,23,4.66q19.53,0,37.31-11.95,10.5-7.29,11.95-15.16Q377.09,563.38,372.7,562.79ZM299,534.51a72.61,72.61,0,0,1-1.75-16.9q0-20.12,7.73-29.59t20.84-8.89q10.49.3,17.78,10.79a16.74,16.74,0,0,1,3.49,9.62,11.63,11.63,0,0,1-1.16,5.24q-2.92,6.71-12.83,11.66c-2.72,1-5.39,2-8,3.21s-5.3,2.23-8,3.2l-4.95,2Q306.83,527.23,299,534.51Z"/><path class="cls-4" d="M532.14,573a4.41,4.41,0,0,0-3.5-1.75,20.52,20.52,0,0,0-3.79.73,20.59,20.59,0,0,1-4.66.73q-9.62,0-28-19.82-6.7-7.29-12.24-14.29t-10.21-14q42.56-29.73,43.43-44.89.59-6.69-4.08-8.45a15.08,15.08,0,0,0-6.12-1.16H475q-6.42,0-6.7,5.53c-.4,3.31,1.26,5.25,4.95,5.83q8.46,2.34,8.45,9,0,9-39.34,36.43V399.54q0-8.46,3.78-14c.78-1,1.9-2.24,3.36-3.79s3.25-3.3,5.39-5.25a4.78,4.78,0,0,0,1.46-3.5,4,4,0,0,0-1.17-3.5q-3.21-4.06-8.16-1.45L402.14,392q-5.25,2.91-5.54,6.12c-.58,2.91.1,5.06,2,6.41a21.84,21.84,0,0,0,6.12.59,8.67,8.67,0,0,1,2.63-.3q6.12,0,6.12,9.91V563.06q0,10.49-5.83,13.7-.87.87-10.49,2.91-5.83,1.47-5.83,7,0,5,5.24,6.12a87.37,87.37,0,0,0,10.2.29h42.85c6,0,9.33-.1,9.91-.29q5.25-1.17,5.25-6.12,0-5.53-5.83-7-9.92-2-10.79-2.62-5.82-3.49-5.82-14V536.24l5.82,6.71q6.42,7.57,12.83,14.86t12.82,14.87q21,21.86,32.65,22.44,13.69.58,25.36-15.16Q534.17,575.88,532.14,573Z"/><path class="cls-5" d="M684.9,587.57c-21.29,3.81-39.57-2.56-56.11-15-19.21-14.47-26-43.12-14.9-62.92,8.63-15.36,23.38-21.37,39.7-24.2,17.28-3,34.48-1.29,51.46,2.51,11.7,2.62,15,7,15.13,19.19.15,17.49.21,35-.06,52.49-.07,4.69,1.23,6.71,6,7.81,15.75,3.65,24.62-2,25.79-18.25.91-12.75.58-25.6.66-38.41.1-17.11,9.67-23.19,25.51-16,1.81.82,3.48,2,3.53,3.23-.68,12-1.47,24.08-2,36.13-.27,6.3,0,12.61-.05,18.92-.09,10.66.86,11.94,11.16,14.61,9.38,2.43,17.74-.19,21-7.63A39.7,39.7,0,0,0,815,545.36c.41-15.46.14-30.93.16-46.39,0-2,.17-4,.27-6.29h26.85a35.45,35.45,0,0,1,.53,4.59c-.11,20.13-.34,40.26-.32,60.4a7.84,7.84,0,0,0,2.41,5.52c6.09,4.75,13.3,6,20.77,4.74,7.7-1.3,13-9.06,13.06-19,.13-13.43,0-26.86.07-40.29,0-6,.43-12.34,7.06-14.91,7.69-3,15.27-1.5,22.08,3,1,.65,1.25,3.13,1.08,4.68-.73,6.61-2.35,13.17-2.53,19.78-.39,14.57-.12,29.17-.12,44.43,13.68,6.7,29.78,2.91,30.28-16.09.33-12.8.44-25.61.5-38.42.08-17.58,10.26-23.81,26.36-16,1.43.7,2.74,1.66,4.48,2.73-6.27,17.19-3.48,35-3.69,52.51-.17,14.64-4,27.27-17.4,34.57s-26.8,3.84-39.47-3.13c-2.65-1.46-5-3.4-8-5.43-8.12,9.18-18.23,13.8-30.71,12.11a51.5,51.5,0,0,1-30.61-15.58c-20.87,25.07-42.08,17.48-63.2,1.07-14.75,17.58-30.53,18.87-54,7.38-1,7-1.69,13.93-3.16,20.73-4.13,19.18-18,30.57-37.72,30.74q-42.42.35-84.85,0c-16.54-.11-29.89-13.81-30.44-31.18-.38-12.19.18-24.42-.23-36.61a82.12,82.12,0,0,0-2.72-18c-.9-3.43-.2-5.53,2.77-6,6.32-1,12.79-2.11,19.11-1.73,5.11.3,8,6.08,8.11,13.39.09,12.41,0,24.83.05,37.24.09,11.31,3.71,15,15.06,15.07,24,.12,48,0,72,.09,6.32,0,10-3,11.4-8.81A45.37,45.37,0,0,0,691.64,586c.11-23.39-.11-46.8.18-70.19.06-5.32-1.86-7.52-6.84-7.53-8.08,0-16.31-1-24.21.27-14.88,2.31-25.31,15.19-24.23,28.2,1.41,17,12.68,28.87,29.06,28.5C677.38,565,686.05,572.21,684.9,587.57Z"/><path class="cls-6" d="M668.43,454.89a40,40,0,0,1,2.44-3.76c7.15-8.86,15.49-8.67,22.43.49,2.87,3.79,2.73,7.77-.44,11a46.85,46.85,0,0,1-9.16,6.93,4.57,4.57,0,0,1-4.19-.36c-4.07-3.22-7.86-6.77-11.61-10.08-3.19,2.8-6.85,6.06-10.58,9.25-.91.78-2.57,2.1-3,1.82-4.29-2.81-8.85-5.46-12.31-9.13-1.49-1.58-1.77-6.29-.49-8.08,2.61-3.66,6.52-6.47,10.19-9.24.74-.56,3.07.2,4.17,1C660.05,447.9,664,451.29,668.43,454.89Z"/><path class="cls-7" d="M951.65,443.87c5.6,6,16.24,7.36,13.35,17-1.4,4.65-8.23,10.94-12.21,10.68-4.64-.3-11-6.2-12.78-11.06C936.89,451.66,947.1,449.84,951.65,443.87Z"/><path class="cls-8" d="M561.57,392.36l4.31-.1c0-7.59,0-15.1,0-22.42l20.64.08q-.07,10.88-.16,22.4l4.15.16c0,1.5,0,3,0,4.43l-.27,70.27c-.05,13-.06,26-.18,39.05a14.26,14.26,0,1,1-28.51-.05c0-10.57.05-21.14.09-31.71q.15-40,.29-80A12.66,12.66,0,0,0,561.57,392.36Z"/><path class="cls-9" d="M616.09,236.17c15,16.59,20.14,34.94,14.58,56a47.88,47.88,0,0,1-6.33,14,3.83,3.83,0,0,1-3.71,2.08,3.15,3.15,0,0,1-3-2.52,5,5,0,0,1,.41-3.37c12.5-19.74,8.41-45.28-7.24-60.56a71.11,71.11,0,0,0-7.73-6.17c-2-1.51-2.78-3.58-1.62-5.38,1.28-2,3.49-2.47,5.64-.92C610.39,231.66,613.52,234.19,616.09,236.17Z"/><path class="cls-10" d="M593.08,289.64h3.13c4.59-.06,7.06-2,7.45-6.57a97.75,97.75,0,0,0,0-11.61c0-.63-1.06-1.21-1.63-1.82-.6.66-1.63,1.27-1.71,2a60.3,60.3,0,0,0-.06,6.45v1.72c0,5.8-1.24,6.82-7.37,6,0-2.09,0-4.22,0-6.35q0-7.21,0-14.42c0-1.29-.08-2.63-1.74-2.69s-1.95,1.33-1.95,2.71c0,3.22,0,6.44,0,9.69a5.27,5.27,0,0,1-.94.28c-6.18.35-6.42.12-6.42-6.1a29.8,29.8,0,0,0-.1-4.73c-.12-.69-1-1.25-1.6-1.87-.61.65-1.7,1.26-1.74,1.93a64.9,64.9,0,0,0,0,8.82c.25,3.54,2.56,5.51,6.15,5.6,1.43,0,2.85,0,4.44,0a17.28,17.28,0,0,1,.18,1.73c0,17.37.05,34.73-.08,52.1,0,1.32-1.22,2.64-1.88,3.95l-1-.12a13.83,13.83,0,0,1-.63-2.77c0-11.41-.07-22.82,0-34.23,0-2-.55-2.77-2.56-3.25a25.56,25.56,0,1,1,26.74-9.16,23.84,23.84,0,0,1-11.28,8.29c-1.65.54-2.1,1.38-2.08,3.08.09,9.4,0,18.8,0,28.2,0,3.43,0,3.43-3.44,4.63Z"/><path class="cls-11" d="M634.38,218.81A81.65,81.65,0,1,0,519.12,334.48q2.05,2.06,4.21,3.91a80.3,80.3,0,0,0,21.45,13.38,81.83,81.83,0,0,0,63.65,0,80.43,80.43,0,0,0,13.17-7.06,81.73,81.73,0,0,0,12.78-125.9Zm-8.27,104.78a69.32,69.32,0,0,1-13.67,11.09c-.53-.24-1.09-.46-1.67-.66-10.09-3.5-18.51-.52-24.3,8.87-5.55-11.05-17.93-15.65-29.93-7.71C550,327.79,542.17,324.83,533,329c-1-.82-2-1.69-2.92-2.58a68.29,68.29,0,1,1,96.07-2.84Z"/><path class="cls-12" d="M556.29,297.08V329.2c-3.34-1.37-3.73-1.92-3.74-5.28,0-3.8,0-7.61.05-11.41a2,2,0,0,0-1.5-2.19,20.15,20.15,0,0,1-12.78-20.58,20.36,20.36,0,0,1,15.82-18.17,43.49,43.49,0,0,1,5.61-.66c.68,3.4,1,6.65,2,9.62a34.89,34.89,0,0,0,4.38,8.3c1.67,2.36,1,4.43.2,6.66s-2.7,1.41-4.25,1.53a19.9,19.9,0,0,1-2.24-.11v-8.6a5.57,5.57,0,0,0-.07-2.13,8.45,8.45,0,0,0-1.59-1.88c-.62.65-1.69,1.24-1.76,1.94-.22,2.26-.08,4.56-.08,7h-3.83q0-3.22,0-6.4c0-1.22-.09-2.45-1.66-2.5s-1.89,1.17-1.88,2.5c0,1.8,0,3.59,0,5.38,0,3.09,1.23,4.42,4.32,4.71C554.27,297,555.18,297,556.29,297.08Z"/><path class="cls-13" d="M560,329v-28.4c5.28.59,9.89-.06,10.62-6.65l7.13,4.37a19.46,19.46,0,0,1-12,12.14c-1.55.58-2.08,1.2-2,2.84.13,3.94,0,7.89,0,11.83C563.69,328.43,563.7,328.43,560,329Z"/></svg>